<mxfile host="app.diagrams.net" modified="2023-12-10T09:05:57.157Z" agent="Mozilla/5.0 (Macintosh; Intel Mac OS X 10_15_7) AppleWebKit/537.36 (KHTML, like Gecko) Chrome/120.0.0.0 Safari/537.36" etag="83g7HFP8HfLfHyAIUNNm" version="22.1.7" type="github">
  <diagram name="Page-1" id="2YBvvXClWsGukQMizWep">
    <mxGraphModel dx="892" dy="524" grid="1" gridSize="10" guides="1" tooltips="1" connect="1" arrows="1" fold="1" page="1" pageScale="1" pageWidth="850" pageHeight="1100" math="0" shadow="0">
      <root>
        <mxCell id="0" />
        <mxCell id="1" parent="0" />
        <mxCell id="PpIKG4tpXPwBzarLsC_P-2" value="Game Manager" style="shape=umlLifeline;perimeter=lifelinePerimeter;whiteSpace=wrap;html=1;container=0;dropTarget=0;collapsible=0;recursiveResize=0;outlineConnect=0;portConstraint=eastwest;newEdgeStyle={&quot;edgeStyle&quot;:&quot;elbowEdgeStyle&quot;,&quot;elbow&quot;:&quot;vertical&quot;,&quot;curved&quot;:0,&quot;rounded&quot;:0};" vertex="1" parent="1">
          <mxGeometry x="80" y="40" width="100" height="760" as="geometry" />
        </mxCell>
        <mxCell id="PpIKG4tpXPwBzarLsC_P-3" value=":ball" style="shape=umlLifeline;perimeter=lifelinePerimeter;whiteSpace=wrap;html=1;container=0;dropTarget=0;collapsible=0;recursiveResize=0;outlineConnect=0;portConstraint=eastwest;newEdgeStyle={&quot;edgeStyle&quot;:&quot;elbowEdgeStyle&quot;,&quot;elbow&quot;:&quot;vertical&quot;,&quot;curved&quot;:0,&quot;rounded&quot;:0};" vertex="1" parent="1">
          <mxGeometry x="300" y="40" width="100" height="760" as="geometry" />
        </mxCell>
        <mxCell id="PpIKG4tpXPwBzarLsC_P-4" value="" style="rounded=1;whiteSpace=wrap;html=1;" vertex="1" parent="1">
          <mxGeometry x="120" y="120" width="20" height="160" as="geometry" />
        </mxCell>
        <mxCell id="PpIKG4tpXPwBzarLsC_P-5" value="" style="rounded=1;whiteSpace=wrap;html=1;" vertex="1" parent="1">
          <mxGeometry x="340" y="120" width="20" height="160" as="geometry" />
        </mxCell>
        <mxCell id="PpIKG4tpXPwBzarLsC_P-6" value="" style="endArrow=classic;html=1;rounded=0;exitX=1;exitY=0.25;exitDx=0;exitDy=0;entryX=0;entryY=0.25;entryDx=0;entryDy=0;" edge="1" parent="1" source="PpIKG4tpXPwBzarLsC_P-4" target="PpIKG4tpXPwBzarLsC_P-5">
          <mxGeometry width="50" height="50" relative="1" as="geometry">
            <mxPoint x="270" y="220" as="sourcePoint" />
            <mxPoint x="340" y="151" as="targetPoint" />
          </mxGeometry>
        </mxCell>
        <mxCell id="PpIKG4tpXPwBzarLsC_P-7" value="Add Effect()" style="text;html=1;align=center;verticalAlign=middle;resizable=0;points=[];autosize=1;strokeColor=none;fillColor=none;" vertex="1" parent="1">
          <mxGeometry x="195" y="130" width="90" height="30" as="geometry" />
        </mxCell>
        <mxCell id="PpIKG4tpXPwBzarLsC_P-24" value="" style="rounded=1;whiteSpace=wrap;html=1;" vertex="1" parent="1">
          <mxGeometry x="350" y="180" width="20" height="50" as="geometry" />
        </mxCell>
        <mxCell id="PpIKG4tpXPwBzarLsC_P-25" value="" style="endArrow=classic;html=1;rounded=0;exitX=1.1;exitY=0.604;exitDx=0;exitDy=0;exitPerimeter=0;entryX=1;entryY=0.25;entryDx=0;entryDy=0;" edge="1" parent="1">
          <mxGeometry width="50" height="50" relative="1" as="geometry">
            <mxPoint x="360" y="160" as="sourcePoint" />
            <mxPoint x="368" y="208" as="targetPoint" />
            <Array as="points">
              <mxPoint x="398" y="160" />
              <mxPoint x="398" y="208" />
            </Array>
          </mxGeometry>
        </mxCell>
        <mxCell id="PpIKG4tpXPwBzarLsC_P-26" value="Add Effect()" style="text;html=1;align=center;verticalAlign=middle;resizable=0;points=[];autosize=1;strokeColor=none;fillColor=none;fontSize=11;" vertex="1" parent="1">
          <mxGeometry x="390" y="170" width="80" height="30" as="geometry" />
        </mxCell>
      </root>
    </mxGraphModel>
  </diagram>
</mxfile>
